HIERARCHY
ROOT Hips
{
	OFFSET 0.000000 0.000000 0.000000
	CHANNELS 6 Xposition Yposition Zposition Zrotation Yrotation Xrotation 
	JOINT LHipJoint
	{
		OFFSET 0.000000 0.000000 0.000000
		CHANNELS 3 Zrotation Yrotation Xrotation
		JOINT LeftUpLeg
		{
			OFFSET 1.363060 -1.794630 0.839290
			CHANNELS 3 Zrotation Yrotation Xrotation
			JOINT LeftLeg
			{
				OFFSET 2.448110 -6.726130 0.000000
				CHANNELS 3 Zrotation Yrotation Xrotation
				JOINT LeftFoot
				{
					OFFSET 2.562200 -7.039590 0.000000
					CHANNELS 3 Zrotation Yrotation Xrotation
					JOINT LeftToeBase
					{
						OFFSET 0.157640 -0.433110 2.322550
						CHANNELS 3 Zrotation Yrotation Xrotation
						End Site
						{
							OFFSET 0.000000 0.000000 0.000000
						}
					}
				}
			}
		}
	}
	JOINT RHipJoint
	{
		OFFSET 0.000000 0.000000 0.000000
		CHANNELS 3 Zrotation Yrotation Xrotation
		JOINT RightUpLeg
		{
			OFFSET -1.305520 -1.794630 0.839290
			CHANNELS 3 Zrotation Yrotation Xrotation
			JOINT RightLeg
			{
				OFFSET -2.542530 -6.985550 0.000000
				CHANNELS 3 Zrotation Yrotation Xrotation
				JOINT RightFoot
				{
					OFFSET -2.568260 -7.056230 0.000000
					CHANNELS 3 Zrotation Yrotation Xrotation
					JOINT RightToeBase
					{
						OFFSET -0.164730 -0.452590 2.363150
						CHANNELS 3 Zrotation Yrotation Xrotation
						End Site
						{
							OFFSET 0.000000 0.000000 0.000000
						}
					}
				}
			}
		}
	}
	JOINT LowerBack
	{
		OFFSET 0.000000 0.000000 0.000000
		CHANNELS 3 Zrotation Yrotation Xrotation
		JOINT Spine
		{
			OFFSET 0.028270 2.035590 -0.193380
			CHANNELS 3 Zrotation Yrotation Xrotation
			JOINT Spine1
			{
				OFFSET 0.056720 2.048850 -0.042750
				CHANNELS 3 Zrotation Yrotation Xrotation
				JOINT Neck
				{
					OFFSET 0.000000 0.000000 0.000000
					CHANNELS 3 Zrotation Yrotation Xrotation
					JOINT Neck1
					{
						OFFSET -0.054170 1.746240 0.172020
						CHANNELS 3 Zrotation Yrotation Xrotation
						JOINT Head
						{
							OFFSET 0.104070 1.761360 -0.123970
							CHANNELS 3 Zrotation Yrotation Xrotation
							End Site
							{
								OFFSET 0.000000 0.000000 0.000000
							}
						}
					}
				}
				JOINT LeftShoulder
				{
					OFFSET 0.000000 0.000000 0.000000
					CHANNELS 3 Zrotation Yrotation Xrotation
					JOINT LeftArm
					{
						OFFSET 3.362410 1.200890 -0.311210
						CHANNELS 3 Zrotation Yrotation Xrotation
						JOINT LeftForeArm
						{
							OFFSET 4.983000 -0.000000 -0.000000
							CHANNELS 3 Zrotation Yrotation Xrotation
							JOINT LeftHand
							{
								OFFSET 3.483560 -0.000000 -0.000000
								CHANNELS 3 Zrotation Yrotation Xrotation
								JOINT LeftFingerBase
								{
									OFFSET 0.000000 0.000000 0.000000
									CHANNELS 3 Zrotation Yrotation Xrotation
									JOINT LeftHandIndex1
									{
										OFFSET 0.715260 -0.000000 -0.000000
										CHANNELS 3 Zrotation Yrotation Xrotation
										End Site
										{
											OFFSET 0.000000 0.000000 0.000000
										}
									}
								}
								JOINT LThumb
								{
									OFFSET 0.000000 0.000000 0.000000
									CHANNELS 3 Zrotation Yrotation Xrotation
									End Site
									{
										OFFSET 0.000000 0.000000 0.000000
									}
								}
							}
						}
					}
				}
				JOINT RightShoulder
				{
					OFFSET 0.000000 0.000000 0.000000
					CHANNELS 3 Zrotation Yrotation Xrotation
					JOINT RightArm
					{
						OFFSET -3.136600 1.374050 -0.404650
						CHANNELS 3 Zrotation Yrotation Xrotation
						JOINT RightForeArm
						{
							OFFSET -5.241900 -0.000000 -0.000000
							CHANNELS 3 Zrotation Yrotation Xrotation
							JOINT RightHand
							{
								OFFSET -3.444170 -0.000000 -0.000000
								CHANNELS 3 Zrotation Yrotation Xrotation
								JOINT RightFingerBase
								{
									OFFSET 0.000000 0.000000 0.000000
									CHANNELS 3 Zrotation Yrotation Xrotation
									JOINT RightHandIndex1
									{
										OFFSET -0.622530 -0.000000 -0.000000
										CHANNELS 3 Zrotation Yrotation Xrotation
										End Site
										{
											OFFSET 0.000000 0.000000 0.000000
										}
									}
								}
								JOINT RThumb
								{
									OFFSET 0.000000 0.000000 0.000000
									CHANNELS 3 Zrotation Yrotation Xrotation
									End Site
									{
										OFFSET 0.000000 0.000000 0.000000
									}
								}
							}
						}
					}
				}
			}
		}
	}
}
MOTION
Frames: 11
Frame Time: 0.008333
0.120381 17.263709 -13.990004 -2.085597 -7.102105 20.575124 -1.658929 -4.217272 -5.447256 -13.160720 2.151608 -47.573367 -1.937172 4.179427 9.060684 0.980015 -2.222828 2.588733 0.115500 -2.191200 -6.034400 1.068270 1.064042 -0.287215 19.052904 -4.514723 -5.973766 -0.276577 -6.398906 18.535060 -1.965812 28.092500 -6.472213 -0.074100 -1.756200 4.832300 2.269268 3.549654 -7.779332 0.387554 3.752777 -9.596409 -1.128249 2.283062 -0.291002 -2.033763 -1.559557 -7.960328 2.203781 -2.025422 12.119893 -0.497300 -0.815000 4.009300 12.937620 8.140103 0.851904 -100.637770 27.621444 -15.309060 3.459258 -12.089040 -0.151058 -1.174714 -0.345485 37.347183 9.586309 -15.786415 -2.653300 -7.125000 0.000000 0.000000 -11.659300 15.206100 8.370700 -12.894643 -7.124875 -0.589280 93.758022 7.075846 38.168524 -43.764741 55.683230 -20.996438 0.528511 -1.414846 -21.333799 -19.121620 -33.670756 10.425800 7.125000 0.000000 0.000000 15.763100 -62.854200 -6.924400
0.130266 17.237143 -13.854759 -2.144466 -6.892549 20.559710 -1.669698 -4.208494 -5.451941 -12.709326 1.498851 -47.235109 -1.936166 4.166137 8.996963 0.947628 -2.045392 2.620639 0.059695 -1.361284 -3.747005 1.063577 1.032637 -0.258664 19.051033 -4.690579 -5.554292 -0.298852 -6.417400 18.626726 -1.924993 28.127711 -6.319634 -0.060868 -1.583083 4.354894 2.421314 3.524050 -7.725851 0.355298 3.703718 -9.613809 -1.313228 2.241619 -0.347524 -2.056677 -1.557337 -7.959739 2.319121 -2.037289 12.096101 -0.432185 -0.818661 4.001821 12.921424 8.122652 0.843116 -100.525814 27.848785 -15.979892 3.429458 -11.986383 -0.141619 -1.179192 -0.341762 37.681133 9.625783 -15.792133 -2.663917 -7.125000 0.000000 0.000000 -11.632626 15.202125 8.351715 -12.896864 -7.125646 -0.584938 93.744912 6.940076 38.172659 -44.310146 55.943169 -21.379845 0.541463 -1.406343 -21.305897 -19.193136 -33.562651 10.444942 7.125000 0.000000 0.000000 15.576803 -62.771721 -6.810645
0.139503 17.210978 -13.719321 -2.179759 -6.703609 20.539839 -1.684131 -4.197260 -5.453769 -12.257572 0.823532 -46.870665 -1.935491 4.156536 8.940250 0.902595 -1.803565 2.616972 0.008772 -0.603530 -1.658511 1.059576 1.001988 -0.231331 19.021224 -4.830309 -5.129228 -0.321767 -6.441132 18.733873 -1.888348 28.127494 -6.167943 -0.048123 -1.414435 3.889846 2.534154 3.497641 -7.676004 0.320409 3.659275 -9.629459 -1.481654 2.203392 -0.399905 -2.085430 -1.556399 -7.962006 2.441235 -2.051327 12.076225 -0.363641 -0.823220 3.997016 12.904948 8.105451 0.834583 -100.416543 28.070109 -16.670748 3.398832 -11.883104 -0.132222 -1.183698 -0.337721 38.043408 9.667199 -15.794641 -2.674373 -7.125000 0.000000 0.000000 -11.604917 15.201349 8.331151 -12.900059 -7.126555 -0.580509 93.734063 6.807065 38.175775 -44.839163 56.194875 -21.751988 0.553733 -1.398062 -21.275679 -19.271566 -33.454505 10.467638 7.125000 0.000000 0.000000 15.383634 -62.690903 -6.694565
0.142031 17.188961 -13.581885 -1.970714 -6.728329 20.473779 -1.736527 -4.160584 -5.425990 -11.802092 -0.085613 -46.234849 -1.938243 4.185174 8.956169 0.726508 -0.894411 2.244630 0.008459 -0.593645 -1.631367 1.062746 0.979166 -0.216613 18.701874 -4.595648 -4.646243 -0.351308 -6.519138 19.001466 -1.894951 27.760107 -6.025467 -0.040435 -1.292102 3.552869 2.240675 3.462888 -7.663823 0.258226 3.662662 -9.626974 -1.478535 2.198490 -0.409372 -2.174692 -1.568754 -7.993876 2.633552 -2.087871 12.096940 -0.259562 -0.837079 4.019924 12.885559 8.090848 0.828700 -100.335088 28.229075 -17.569137 3.359646 -11.773383 -0.123251 -1.188502 -0.330388 38.699223 9.728738 -15.763894 -2.683160 -7.125000 0.000000 0.000000 -11.566476 15.233723 8.294226 -12.913337 -7.128883 -0.575171 93.746641 6.702644 38.168320 -45.198340 56.361247 -22.007383 0.558933 -1.392081 -21.221447 -19.421647 -33.345924 10.527156 7.125000 0.000000 0.000000 15.119251 -62.627305 -6.554398
0.143205 17.167646 -13.444449 -1.717475 -6.796534 20.410208 -1.786696 -4.120837 -5.396205 -11.426250 -0.945828 -45.647686 -1.939494 4.231890 9.021789 0.549136 0.013969 1.913784 0.016899 -0.721790 -1.984510 1.063737 0.958779 -0.204144 18.333578 -4.293313 -4.165952 -0.380313 -6.599096 19.280011 -1.893109 27.372529 -5.796558 -0.037478 -1.239700 3.408608 1.864692 3.429108 -7.660586 0.192525 3.679228 -9.623476 -1.436584 2.202892 -0.415969 -2.259939 -1.584785 -8.029903 2.813699 -2.128114 12.110470 -0.163978 -0.853001 4.040098 12.867049 8.077570 0.823334 -100.259023 28.357998 -18.593561 3.311015 -11.642103 -0.113169 -1.193506 -0.320327 39.504260 9.782395 -15.721701 -2.687666 -7.125000 0.000000 0.000000 -11.534073 15.277880 8.258829 -12.926983 -7.129692 -0.569810 93.759568 6.601353 38.148699 -45.539237 56.517761 -22.250247 0.563844 -1.386007 -21.169031 -19.548754 -33.222059 10.568919 7.125000 0.000000 0.000000 14.870370 -62.543281 -6.414332
0.138037 17.149617 -13.307014 -1.257329 -7.068326 20.358290 -1.826437 -4.066720 -5.357023 -11.423255 -1.576961 -45.288313 -1.933722 4.363243 9.320096 0.365750 0.918728 1.777209 0.066323 -1.496162 -4.118087 1.054529 0.949790 -0.202201 17.736122 -3.674141 -3.698277 -0.406810 -6.688190 19.609829 -1.851728 26.890419 -5.162988 -0.056673 -1.514700 4.166610 1.102443 3.399887 -7.699226 0.110352 3.757498 -9.615238 -1.212833 2.250854 -0.409136 -2.326390 -1.618021 -8.085390 2.936861 -2.185678 12.090365 -0.108173 -0.878577 4.047472 12.852648 8.070493 0.820382 -100.208194 28.346268 -20.208054 3.218164 -11.409882 -0.097883 -1.199446 -0.297499 41.007931 9.799150 -15.625920 -2.672133 -7.125000 0.000000 0.000000 -11.529941 15.377200 8.230587 -12.942343 -7.123394 -0.564339 93.774128 6.514714 38.072121 -45.794542 56.628116 -22.434439 0.567402 -1.379492 -21.125108 -19.568308 -33.026631 10.527549 7.125000 0.000000 0.000000 14.694062 -62.363626 -6.274740
0.134278 17.132167 -13.168436 -0.858709 -7.288803 20.311294 -1.860308 -4.016286 -5.320673 -11.423621 -2.155448 -44.966399 -1.921673 4.513587 9.672996 0.186374 1.833507 1.920106 0.208493 -2.601446 -7.197798 1.044615 0.939489 -0.199829 17.214729 -3.102976 -3.243237 -0.437393 -6.785388 19.952772 -1.828930 26.419731 -4.699960 -0.061066 -1.495130 4.113696 0.428126 3.371459 -7.739195 0.039355 3.823112 -9.607737 -1.009128 2.292005 -0.399336 -2.396476 -1.657983 -8.144483 3.044408 -2.249136 12.076010 -0.057490 -0.907880 4.058257 12.840560 8.063262 0.816569 -100.166000 28.316313 -21.890777 3.123858 -11.168106 -0.078462 -1.210707 -0.273314 42.574571 9.840388 -15.631270 -2.681480 -7.125000 0.000000 0.000000 -11.504697 15.378487 8.211208 -12.955356 -7.116587 -0.558283 93.774010 6.393413 37.983134 -46.078174 56.749896 -22.638811 0.572125 -1.372477 -21.077589 -19.568758 -32.842361 10.479371 7.125000 0.000000 0.000000 14.547013 -62.190185 -6.150446
0.134447 17.116328 -13.026676 -0.631617 -7.366216 20.278019 -1.877817 -3.976122 -5.292217 -11.433355 -2.587169 -44.748917 -1.892129 4.716875 10.178094 0.018176 2.776225 2.842134 0.609226 -4.629270 -12.915214 1.032733 0.925529 -0.196260 16.905389 -2.665648 -2.823422 -0.479371 -6.905178 20.332305 -1.857936 25.980881 -4.712382 -0.024193 -0.654335 1.800046 -0.001044 3.345238 -7.782875 -0.000482 3.853441 -9.602294 -0.861311 2.314168 -0.381267 -2.476695 -1.716695 -8.213625 3.108420 -2.329024 12.077683 -0.021088 -0.947577 4.078550 12.834916 8.055601 0.810354 -100.147885 28.235553 -23.763716 3.025496 -10.899690 -0.047510 -1.236805 -0.245349 44.316760 9.949882 -15.918564 -2.760194 -7.125000 0.000000 0.000000 -11.420597 15.106468 8.216543 -12.961820 -7.108365 -0.550595 93.732970 6.175483 37.859551 -46.440777 56.903525 -22.899439 0.580096 -1.364065 -21.020043 -19.515949 -32.689196 10.412216 7.125000 0.000000 0.000000 14.481532 -62.034065 -6.068804
0.136256 17.101280 -12.883492 -0.447767 -7.347650 20.255240 -1.884181 -3.940208 -5.268119 -11.484338 -2.987390 -44.617400 -1.848986 4.970276 10.825128 -0.096749 3.442250 3.638315 0.837787 -5.833613 -16.303871 1.018961 0.909203 -0.190518 16.673736 -2.331304 -2.395418 -0.516990 -7.008953 20.664170 -1.887115 25.550615 -4.769402 -0.016225 0.260579 -0.717680 -0.347880 3.305080 -7.851433 -0.031771 3.853769 -9.596502 -0.745836 2.319075 -0.342422 -2.561914 -1.785819 -8.304196 3.184254 -2.422433 12.114843 0.023211 -0.993146 4.121285 12.830051 8.048640 0.802327 -100.121174 28.147540 -25.615866 2.935039 -10.645255 -0.018400 -1.261931 -0.214932 46.030766 10.029269 -16.206162 -2.832077 -7.125000 0.000000 0.000000 -11.356251 14.834081 8.236274 -12.967292 -7.101404 -0.542550 93.673777 5.918469 37.739532 -46.823580 57.065103 -23.175054 0.588048 -1.355586 -20.971629 -19.498443 -32.580085 10.377666 7.125000 0.000000 0.000000 14.409221 -61.929365 -6.001982
0.141087 17.087688 -12.737687 -0.343521 -7.152395 20.251782 -1.870032 -3.912116 -5.252043 -11.611258 -3.329621 -44.644136 -1.780809 5.315931 11.733454 -0.113604 3.598908 4.202819 0.749398 -5.522002 -15.405492 1.001707 0.888520 -0.180778 16.585098 -2.186544 -1.952337 -0.546585 -7.083247 20.908283 -1.916611 25.136151 -4.908523 -0.061465 1.311938 -3.611090 -0.543148 3.239265 -7.965787 -0.047322 3.798867 -9.590069 -0.689901 2.292216 -0.265331 -2.656336 -1.874111 -8.434216 3.281854 -2.540732 12.217330 0.082050 -1.049527 4.205333 12.826621 8.042968 0.790964 -100.078641 28.046175 -27.429745 2.859137 -10.416559 0.007320 -1.285266 -0.180002 47.692890 10.053234 -16.494320 -2.891387 -7.125000 0.000000 0.000000 -11.328269 14.561016 8.282509 -12.970937 -7.096763 -0.533847 93.581166 5.589505 37.626075 -47.243568 57.241317 -23.478260 0.595964 -1.346983 -20.940025 -19.545924 -32.552073 10.403136 7.125000 0.000000 0.000000 14.324336 -61.919323 -5.962442
0.145596 17.075826 -12.591265 -0.227269 -6.963022 20.280644 -1.836414 -3.882935 -5.241364 -11.822884 -3.613354 -44.831436 -1.691352 5.718041 12.796319 -0.123379 3.735209 4.832062 0.798279 -5.668916 -15.836088 0.975027 0.867851 -0.170361 16.492573 -2.073873 -1.513875 -0.559220 -7.109838 21.038314 -1.872926 24.850758 -4.517541 -0.077273 1.779792 -4.897856 -0.767325 3.174289 -8.111008 -0.066054 3.750087 -9.591743 -0.628132 2.269153 -0.190764 -2.726979 -1.951436 -8.574298 3.394647 -2.648392 12.324408 0.142408 -1.098682 4.294214 12.820841 8.037308 0.778239 -100.016337 27.944251 -29.179488 2.791212 -10.206455 0.023458 -1.296805 -0.144865 49.342873 10.014492 -16.574291 -2.895328 -7.125000 0.000000 0.000000 -11.350663 14.490186 8.317007 -12.973016 -7.089360 -0.523286 93.488297 5.175068 37.498651 -47.766151 57.456288 -23.855857 0.605827 -1.336936 -20.915727 -19.608509 -32.570225 10.452103 7.125000 0.000000 0.000000 14.253833 -61.958736 -5.945616
